<svg width="967" height="726" viewBox="0 0 967 726" fill="none" xmlns="http://www.w3.org/2000/svg">
<path d="M340.142 361.669L355.928 434.269L415.278 366.751L439.453 388.12C439.453 388.12 355.372 513.282 321.817 505.102C288.262 496.923 297.4 449.442 290.269 398.405C283.137 347.367 340.142 361.669 340.142 361.669Z" fill="white"/>
<path d="M325.057 506.7C323.869 506.701 322.684 506.563 321.527 506.288C295.975 500.045 294.403 472.408 292.517 437.415C291.816 424.904 291.067 411.981 289.206 398.574C287.199 384.223 289.979 373.527 297.498 366.775C312.22 353.562 339.417 360.193 340.553 360.483C340.77 360.544 340.967 360.662 341.124 360.823C341.281 360.984 341.392 361.184 341.448 361.403L356.726 431.583L414.48 365.856C414.697 365.612 415.001 365.464 415.326 365.444C415.643 365.428 415.954 365.532 416.197 365.735L440.372 387.127C440.592 387.32 440.734 387.586 440.77 387.877C440.805 388.167 440.732 388.461 440.565 388.7C437.036 393.758 360.764 506.675 325.057 506.7ZM323.655 361.04C315.363 361.04 305.645 362.589 298.996 368.59C292.348 374.592 289.592 384.756 291.478 398.235C293.364 411.715 294.089 424.71 294.814 437.27C296.748 471.271 298.295 498.109 322.083 503.941C335.307 507.135 359.555 488.138 392.191 448.91C414.722 421.83 434.159 393.589 437.761 388.41L415.351 368.518L356.823 435.14C356.677 435.311 356.487 435.437 356.273 435.505C356.06 435.574 355.832 435.581 355.614 435.527C355.395 435.471 355.196 435.355 355.038 435.193C354.88 435.031 354.77 434.828 354.72 434.608L339.103 362.782C334.027 361.671 328.85 361.087 323.655 361.04Z" fill="#3C4242"/>
<path d="M146.525 575.96C141.69 608.678 142.439 617.681 142.439 617.681L342.899 613.664L316.524 498.98L162.819 515.46C155.242 534.985 149.779 555.268 146.525 575.96Z" fill="#3C4242"/>
<path d="M142.439 618.891C142.137 618.898 141.844 618.789 141.619 618.587C141.394 618.384 141.255 618.103 141.231 617.802C141.231 617.415 140.457 608.267 145.316 575.791C148.606 555.001 154.1 534.623 161.707 515C161.791 514.798 161.927 514.623 162.101 514.491C162.275 514.359 162.481 514.276 162.698 514.25L316.379 497.77C316.671 497.733 316.968 497.806 317.209 497.976C317.451 498.147 317.62 498.401 317.684 498.689L344.083 613.397C344.123 613.574 344.122 613.757 344.08 613.934C344.038 614.11 343.956 614.274 343.841 614.414C343.735 614.557 343.596 614.674 343.437 614.754C343.277 614.833 343.101 614.875 342.923 614.874L142.464 618.891H142.439ZM147.71 576.154C143.817 602.144 143.551 613.18 143.6 616.447L341.376 612.502L315.581 500.287L163.689 516.573C156.305 535.822 150.95 555.791 147.71 576.154Z" fill="#3C4242"/>
<path d="M144.421 563.691L332.382 542.516C314.879 430.687 305.958 489.808 327.112 385.216L349.401 379.166C339.054 325.127 313.622 301.411 313.622 301.411C288.794 256.665 228.26 282.85 228.26 282.85C228.26 282.85 158.829 288.416 140.916 348.48C129.046 388.216 149.425 443.634 151.964 492.01C152.665 505.538 147.999 504.981 144.421 563.691Z" fill="#8A33FD"/>
<path d="M280.043 311.527C273.056 310.462 266.336 309.276 259.107 311.212C248.374 314.14 238.921 320.36 227.873 322.949C216.076 325.684 203.215 325.78 191.151 326.337C187.622 326.506 191.441 330.983 188.395 329.168C177.686 322.78 176.84 308.235 175.849 297.321C173.217 272.104 174.031 246.645 178.266 221.648C182.328 199.868 186.534 179.225 207.639 168.093C223.014 159.986 244.627 155.146 261.476 161.148C278.326 167.149 292.396 182.565 298.271 199.626C304.774 218.502 306.901 237.644 317.828 254.923C322.663 262.546 328.635 269.975 329.916 278.905C331.318 289.674 324.936 300.516 315.774 306.324C306.611 312.132 295.176 313.584 284.346 312.132C282.847 311.962 281.445 311.744 280.043 311.527Z" fill="white"/>
<path d="M189.411 330.814C188.822 330.751 188.257 330.543 187.767 330.209C176.961 323.772 175.68 309.905 174.761 298.749V297.418C172.199 268.789 172.996 243.936 177.179 221.406C181.095 200.376 185.156 178.62 207.18 167.004C221.032 159.744 243.708 153.476 261.985 159.986C278.907 166.012 293.243 181.04 299.504 199.214C301.632 205.361 303.3 211.605 304.919 217.655C308.401 230.553 311.664 242.726 318.941 254.245C319.811 255.649 320.73 257.028 321.648 258.408C325.807 264.675 330.11 271.161 331.077 278.736C332.479 289.384 326.58 300.879 316.402 307.316C305.524 314.213 292.904 314.382 284.25 313.317L279.922 312.688L278.883 312.543C272.331 311.527 266.118 310.583 259.543 312.374C254.575 313.851 249.726 315.703 245.038 317.915C239.601 320.495 233.936 322.561 228.115 324.086C217.834 326.123 207.385 327.192 196.905 327.281L191.152 327.523C191.001 327.487 190.843 327.487 190.692 327.523C190.65 327.804 190.65 328.089 190.692 328.37C190.813 328.735 190.823 329.128 190.719 329.499C190.616 329.87 190.405 330.201 190.112 330.451C189.916 330.634 189.674 330.759 189.411 330.814ZM244.844 159.72C232.068 160.01 219.533 163.256 208.219 169.206C187.235 180.266 183.295 201.417 179.475 221.89C175.317 244.202 174.64 268.838 177.058 297.249L177.179 298.58C178.097 308.913 179.209 321.715 188.323 327.62C188.323 327.04 188.519 326.477 188.879 326.022C189.157 325.709 189.5 325.46 189.885 325.292C190.269 325.125 190.685 325.044 191.103 325.054L196.857 324.812C207.177 324.786 217.471 323.798 227.608 321.86C233.248 320.359 238.735 318.334 243.998 315.81C248.784 313.561 253.729 311.668 258.793 310.147C265.901 308.235 272.356 309.228 279.173 310.147L280.213 310.317C281.615 310.51 283.017 310.728 284.443 310.897C292.735 311.938 304.75 311.793 315.025 305.259C324.404 299.33 329.868 288.779 328.587 279.05C327.668 272.032 323.534 265.789 319.545 259.69C318.627 258.287 317.684 256.883 316.789 255.479C309.319 243.646 305.862 230.699 302.502 218.211C300.882 212.21 299.214 206.111 297.135 199.916C291.091 182.42 277.287 167.972 261.066 162.188C255.837 160.454 250.352 159.62 244.844 159.72Z" fill="#3C4242"/>
<path d="M288.19 210.976C288.19 210.976 300.664 240.016 296.942 262.764C296.064 269.138 293.348 275.117 289.128 279.97C284.907 284.823 279.364 288.338 273.177 290.085L275.595 329.943C275.595 329.943 277.07 350.319 251.903 348.746C244.622 348.277 237.58 345.957 231.442 342.007C225.304 338.056 220.274 332.605 216.826 326.168L209.355 253.059C209.355 253.059 236.601 234.982 232.491 208.822C232.66 208.822 267.303 222.979 288.19 210.976Z" fill="white"/>
<path d="M254.78 350.029H252C244.507 349.503 237.268 347.089 230.957 343.01C224.647 338.931 219.469 333.32 215.907 326.7C215.886 326.564 215.886 326.425 215.907 326.289L208.437 253.18C208.423 252.959 208.468 252.738 208.565 252.538C208.662 252.339 208.81 252.168 208.993 252.043C209.235 251.874 235.585 234.087 231.572 209.015C231.545 208.803 231.574 208.588 231.655 208.39C231.736 208.193 231.867 208.019 232.036 207.888C232.204 207.756 232.403 207.67 232.614 207.639C232.826 207.607 233.041 207.631 233.241 207.709C233.579 207.709 267.569 221.478 287.707 209.911C287.864 209.845 288.032 209.811 288.202 209.811C288.373 209.811 288.541 209.845 288.698 209.911C289.018 210.035 289.278 210.277 289.423 210.588C289.931 211.774 301.994 240.137 298.247 263.054C297.335 269.474 294.637 275.507 290.46 280.463C286.283 285.419 280.796 289.097 274.628 291.078L277.046 329.967C277.145 332.579 276.728 335.184 275.819 337.634C274.911 340.084 273.528 342.331 271.751 344.245C267.811 348.069 262.13 350.029 254.78 350.029ZM218.179 325.829C221.565 332.022 226.453 337.263 232.393 341.069C238.333 344.875 245.134 347.124 252.17 347.609C260.123 348.117 266.094 346.399 269.938 342.551C273.028 339.15 274.683 334.684 274.556 330.088L272.138 290.231C272.124 289.944 272.211 289.661 272.383 289.432C272.555 289.202 272.802 289.039 273.081 288.972C279.049 287.32 284.397 283.94 288.453 279.255C292.509 274.571 295.092 268.791 295.878 262.643C299.069 243.041 289.979 218.478 287.707 212.742C269.116 222.422 241.774 213.492 234.232 210.758C236.649 234.087 214.892 250.857 210.927 253.713L218.179 325.829Z" fill="#3C4242"/>
<path d="M274.725 264.966C272.69 264.95 270.66 264.764 268.657 264.409C268.501 264.377 268.353 264.315 268.222 264.226C268.09 264.137 267.977 264.023 267.89 263.891C267.802 263.758 267.742 263.61 267.711 263.454C267.681 263.298 267.682 263.137 267.714 262.981C267.743 262.824 267.803 262.674 267.891 262.541C267.979 262.407 268.093 262.293 268.226 262.205C268.359 262.117 268.509 262.057 268.666 262.028C268.823 261.999 268.984 262.002 269.14 262.038C269.14 262.038 277.191 263.586 280.986 261.312C281.566 258.166 273.951 247.711 268.391 241.25C268.179 241.006 268.073 240.688 268.096 240.366C268.118 240.043 268.268 239.743 268.512 239.532C268.755 239.32 269.073 239.214 269.395 239.236C269.717 239.259 270.017 239.409 270.228 239.653C272.646 242.411 284.298 256.375 283.476 261.433C283.43 261.824 283.294 262.2 283.081 262.531C282.867 262.863 282.58 263.141 282.243 263.344C279.92 264.528 277.329 265.087 274.725 264.966Z" fill="#3C4242"/>
<path d="M265.925 277.985C264.458 277.988 262.993 277.858 261.549 277.598C254.698 276.381 248.512 272.74 244.119 267.337C243.974 267.055 243.946 266.726 244.041 266.422C244.136 266.119 244.346 265.865 244.627 265.716C244.91 265.568 245.24 265.535 245.546 265.625C245.853 265.716 246.113 265.922 246.271 266.2C250.339 270.965 255.938 274.165 262.105 275.251C270.276 276.582 278.399 273.581 286.28 266.321C286.393 266.2 286.53 266.103 286.682 266.037C286.834 265.971 286.998 265.938 287.164 265.938C287.33 265.938 287.494 265.972 287.646 266.039C287.798 266.105 287.934 266.202 288.047 266.323C288.16 266.444 288.247 266.588 288.302 266.744C288.358 266.901 288.38 267.067 288.369 267.232C288.357 267.398 288.312 267.559 288.235 267.706C288.159 267.853 288.053 267.983 287.924 268.088C280.768 274.67 273.419 277.985 265.925 277.985Z" fill="#3C4242"/>
<path d="M273.177 290.085C273.177 290.085 252.097 294.127 239.671 291.779C239.671 291.779 254.998 322.32 275.208 320.819L273.177 290.085Z" fill="#3C4242"/>
<path d="M273.83 322.126C253.837 322.126 239.26 293.57 238.631 292.312C238.536 292.111 238.497 291.887 238.518 291.666C238.54 291.444 238.62 291.233 238.752 291.053C238.883 290.87 239.065 290.728 239.276 290.647C239.486 290.565 239.716 290.547 239.937 290.594C252.024 292.868 272.79 288.948 273.008 288.9C273.177 288.867 273.351 288.872 273.518 288.914C273.685 288.956 273.841 289.033 273.975 289.142C274.108 289.246 274.218 289.378 274.297 289.528C274.376 289.678 274.423 289.843 274.434 290.013L276.465 320.771C276.478 320.93 276.46 321.09 276.411 321.242C276.362 321.394 276.284 321.535 276.181 321.656C276.077 321.777 275.951 321.877 275.809 321.95C275.667 322.022 275.512 322.066 275.353 322.078L273.83 322.126ZM241.967 293.328C245.739 299.935 258.334 319.706 273.854 319.706L271.993 291.513C267.569 292.312 252.725 294.635 241.967 293.328Z" fill="#3C4242"/>
<path d="M395.189 291.489L447.576 288.924L421.322 400.099L364.994 405.64L395.189 291.489Z" fill="#3C4242"/>
<path d="M365.043 406.85C364.869 406.854 364.697 406.818 364.538 406.747C364.379 406.676 364.238 406.571 364.124 406.439C363.995 406.288 363.904 406.108 363.858 405.914C363.811 405.721 363.812 405.519 363.858 405.326L394.053 291.199C394.116 290.949 394.259 290.726 394.459 290.564C394.66 290.403 394.908 290.311 395.165 290.303L447.528 287.714C447.717 287.698 447.906 287.73 448.079 287.806C448.252 287.882 448.403 288 448.519 288.149C448.642 288.295 448.728 288.467 448.77 288.652C448.812 288.838 448.809 289.03 448.761 289.214L422.531 400.389C422.472 400.634 422.337 400.855 422.147 401.019C421.956 401.184 421.718 401.285 421.468 401.309L365.043 406.85ZM396.18 292.675L366.639 404.261L420.404 398.985L446.078 290.206L396.18 292.675Z" fill="#3C4242"/>
<path d="M327.112 386.45C326.804 386.45 326.507 386.333 326.282 386.121C326.057 385.91 325.922 385.621 325.903 385.312C324.853 369.292 321.313 353.534 315.411 338.606C315.281 338.314 315.271 337.982 315.384 337.683C315.497 337.383 315.724 337.141 316.016 337.009C316.16 336.941 316.316 336.903 316.475 336.896C316.634 336.89 316.793 336.916 316.942 336.972C317.091 337.029 317.227 337.115 317.342 337.225C317.457 337.335 317.549 337.468 317.611 337.614C323.636 352.801 327.25 368.838 328.321 385.143C328.341 385.467 328.233 385.785 328.02 386.029C327.808 386.274 327.508 386.425 327.185 386.45H327.112Z" fill="#3C4242"/>
<path d="M244.917 239.338C244.797 239.361 244.674 239.361 244.554 239.338C244.251 239.243 243.997 239.032 243.848 238.752C243.698 238.471 243.666 238.142 243.756 237.838C244.741 234.717 246.912 232.109 249.8 230.578C251.253 230.01 252.815 229.775 254.37 229.888C255.926 230.001 257.437 230.46 258.793 231.231C259.059 231.382 259.257 231.629 259.349 231.921C259.44 232.213 259.418 232.528 259.286 232.804C259.154 233.08 258.923 233.296 258.639 233.408C258.354 233.521 258.038 233.521 257.754 233.409C256.705 232.802 255.535 232.433 254.328 232.328C253.12 232.224 251.905 232.386 250.767 232.804C248.546 234.009 246.869 236.017 246.077 238.418C246.013 238.679 245.864 238.91 245.654 239.077C245.444 239.243 245.185 239.335 244.917 239.338Z" fill="#3C4242"/>
<path d="M278.399 232.175H278.182C277.866 232.11 277.588 231.925 277.408 231.658C277.227 231.391 277.158 231.064 277.215 230.747C277.405 229.752 277.822 228.815 278.435 228.009C279.047 227.203 279.838 226.55 280.744 226.101C282.872 225.254 285.579 225.931 288.456 228.085C288.686 228.282 288.834 228.558 288.87 228.858C288.906 229.159 288.829 229.462 288.653 229.709C288.477 229.955 288.215 230.126 287.919 230.188C287.623 230.251 287.314 230.199 287.054 230.045C284.806 228.424 282.944 227.843 281.663 228.327C281.132 228.629 280.674 229.043 280.319 229.54C279.964 230.038 279.721 230.606 279.608 231.207C279.547 231.482 279.394 231.728 279.174 231.904C278.955 232.08 278.681 232.176 278.399 232.175Z" fill="#3C4242"/>
<path d="M174.471 259.884C174.471 259.884 177.42 268.741 168.064 294.393C158.709 320.045 159.095 339.695 182.569 343.229C206.043 346.762 219.775 343.93 222.869 323.869C225.964 303.807 207.905 281.785 207.905 281.785" fill="white"/>
<path d="M197.219 345.721C192.254 345.659 187.3 345.222 182.4 344.414C173.794 343.132 167.702 339.574 164.341 333.912C159.361 325.49 160.207 312.422 166.928 293.957C175.945 269.249 173.358 260.344 173.334 260.271C173.283 260.112 173.264 259.945 173.278 259.778C173.292 259.612 173.338 259.45 173.415 259.302C173.491 259.154 173.596 259.022 173.723 258.914C173.85 258.806 173.997 258.725 174.156 258.674C174.315 258.623 174.482 258.604 174.648 258.618C174.814 258.632 174.976 258.678 175.124 258.754C175.272 258.831 175.404 258.936 175.512 259.063C175.619 259.19 175.701 259.338 175.752 259.497C175.752 259.884 178.725 269.177 169.321 294.804C162.867 312.543 162.069 324.933 166.541 332.677C169.563 337.784 174.906 340.833 182.883 342.019C205.197 345.382 218.735 343.471 221.805 323.748C224.779 304.557 207.3 282.753 207.107 282.608C207.004 282.486 206.928 282.346 206.881 282.194C206.834 282.042 206.817 281.883 206.833 281.725C206.849 281.567 206.896 281.414 206.972 281.274C207.048 281.135 207.152 281.012 207.276 280.914C207.523 280.713 207.84 280.618 208.157 280.65C208.474 280.682 208.765 280.837 208.968 281.083C209.718 282.003 227.341 303.928 224.174 324.207C221.515 340.567 211.748 345.721 197.219 345.721Z" fill="#3C4242"/>
<path d="M824.488 108.319H484.032C480.018 108.313 476.164 109.898 473.315 112.728C470.465 115.558 468.851 119.402 468.826 123.42V227.214L430.146 274.646L468.826 260.9V552.68C468.826 556.717 470.428 560.588 473.279 563.443C476.131 566.298 479.999 567.901 484.032 567.901H824.488C828.521 567.901 832.389 566.298 835.24 563.443C838.092 560.588 839.694 556.717 839.694 552.68V123.42C839.662 119.404 838.046 115.563 835.198 112.735C832.35 109.906 828.5 108.319 824.488 108.319Z" fill="white"/>
<path d="M824.576 569.111H484.119C479.767 569.105 475.596 567.372 472.519 564.292C469.442 561.211 467.711 557.036 467.704 552.68V262.594L430.644 275.88C430.395 275.971 430.123 275.978 429.869 275.9C429.616 275.821 429.395 275.661 429.242 275.444C429.085 275.235 429 274.98 429 274.718C429 274.457 429.085 274.202 429.242 273.992L467.656 226.875V123.42C467.662 119.066 469.394 114.893 472.472 111.817C475.55 108.74 479.721 107.012 484.071 107.012H824.576C828.925 107.012 833.096 108.74 836.174 111.817C839.252 114.893 840.984 119.066 840.99 123.42V552.68C840.984 557.036 839.252 561.211 836.175 564.292C833.099 567.372 828.927 569.105 824.576 569.111ZM468.913 259.69C469.163 259.691 469.407 259.767 469.614 259.908C469.773 260.019 469.903 260.168 469.992 260.341C470.08 260.514 470.125 260.706 470.122 260.9V552.68C470.128 556.394 471.605 559.954 474.228 562.58C476.852 565.207 480.409 566.685 484.119 566.691H824.576C828.286 566.685 831.842 565.207 834.466 562.58C837.09 559.954 838.566 556.394 838.573 552.68V123.42C838.566 119.708 837.089 116.15 834.465 113.528C831.84 110.905 828.284 109.432 824.576 109.432H484.119C480.411 109.432 476.854 110.905 474.23 113.528C471.606 116.15 470.128 119.708 470.122 123.42V227.214C470.118 227.486 470.025 227.75 469.856 227.964L433.908 272.056L468.502 259.763C468.634 259.715 468.773 259.691 468.913 259.69Z" fill="#3C4242"/>
<path d="M427.076 405.64C446.416 378.173 446.416 378.173 445.328 368.711C444.482 361.451 440.855 355.087 437.06 349.085C432.225 341.438 421.66 329.725 417.72 345.334C415.762 352.836 412.74 362.056 414.819 369.752C416.753 376.867 422.071 382.699 424.997 389.378" fill="white"/>
<path d="M427.076 406.85C426.825 406.849 426.581 406.773 426.374 406.633C426.116 406.443 425.941 406.161 425.886 405.844C425.832 405.528 425.903 405.203 426.084 404.939C445.183 377.859 445.183 377.859 444.119 368.856C443.297 361.596 439.501 355.208 436.02 349.738C432.539 344.269 427.027 338.389 423.449 338.921C421.032 339.308 419.533 342.793 418.783 345.649L418.082 348.262C416.245 355.135 414.118 362.927 415.907 369.437C417.235 373.504 419.14 377.359 421.564 380.884C423.225 383.45 424.711 386.126 426.012 388.894C426.14 389.189 426.146 389.523 426.028 389.823C425.91 390.122 425.678 390.363 425.383 390.491C425.088 390.62 424.755 390.625 424.455 390.507C424.156 390.389 423.916 390.157 423.788 389.862C422.528 387.195 421.091 384.616 419.485 382.142C416.936 378.417 414.941 374.341 413.562 370.042C411.628 362.903 413.828 354.772 415.762 347.609L416.463 345.019C417.792 339.841 420.016 336.985 423.062 336.501C429.372 335.509 436.141 345.358 438.075 348.407C441.701 354.119 445.618 360.846 446.536 368.542C447.697 378.464 447.697 378.464 428.067 406.318C427.958 406.482 427.811 406.617 427.638 406.709C427.465 406.802 427.272 406.851 427.076 406.85Z" fill="#3C4242"/>
<path d="M189.629 442.86C189.629 442.86 276.417 523.156 301.221 513.984C326.024 504.812 354.913 466.528 371.933 439.835C388.952 413.142 410.999 376.262 414.239 359.83C417.478 343.398 412.402 331.129 406.261 334.202C400.121 337.275 377.13 359.806 377.13 359.806C377.13 359.806 384.89 337.784 381.264 337.687C377.638 337.59 366.953 347.367 363.399 378.827L289.665 453.847L229.228 394.847" fill="white"/>
<path d="M296.821 515.871C267.158 515.871 192.167 446.829 188.807 443.731C188.693 443.619 188.604 443.485 188.542 443.337C188.481 443.19 188.449 443.032 188.449 442.872C188.449 442.712 188.481 442.554 188.542 442.407C188.604 442.259 188.693 442.125 188.807 442.013C189.037 441.79 189.345 441.665 189.665 441.665C189.985 441.665 190.293 441.79 190.523 442.013C190.741 442.231 212.474 462.293 236.939 480.951C269.044 505.441 291.14 516.501 300.882 512.895C328.998 502.513 361.658 453.895 370.99 439.23C388.468 411.811 409.96 375.729 413.127 359.66C415.544 347.923 413.32 338.219 409.911 335.63C409.502 335.272 408.991 335.049 408.45 334.993C407.909 334.936 407.364 335.049 406.889 335.315C400.967 338.268 378.266 360.532 378.024 360.749C377.834 360.942 377.583 361.062 377.313 361.088C377.044 361.115 376.774 361.046 376.55 360.895C376.317 360.754 376.14 360.538 376.048 360.283C375.955 360.027 375.953 359.748 376.042 359.491C379.016 351.045 381.627 341.075 381.022 338.994C378.605 339.502 368.234 347.343 364.656 378.899C364.613 379.168 364.496 379.42 364.317 379.625L290.584 454.645C290.473 454.758 290.342 454.848 290.196 454.909C290.051 454.97 289.895 455.001 289.737 455.001C289.58 455.001 289.424 454.97 289.278 454.909C289.133 454.848 289.002 454.758 288.891 454.645L228.454 395.646C228.223 395.421 228.091 395.114 228.086 394.792C228.082 394.469 228.205 394.159 228.43 393.928C228.654 393.697 228.961 393.564 229.283 393.56C229.605 393.555 229.915 393.679 230.146 393.903L289.834 451.983L362.359 378.101C366.01 346.81 376.864 336.428 381.336 336.428C381.651 336.427 381.961 336.506 382.236 336.659C382.511 336.811 382.742 337.032 382.908 337.3C384.528 339.72 382.062 348.77 379.91 355.425C386.679 348.916 400.991 335.436 405.802 333.04C406.683 332.573 407.681 332.375 408.673 332.469C409.666 332.564 410.609 332.947 411.386 333.573C416.076 337.179 417.817 348.286 415.496 359.999C412.256 376.455 390.62 412.804 373.02 440.416C360.933 459.413 329.747 504.691 301.704 515.049C300.139 515.616 298.485 515.895 296.821 515.871Z" fill="#3C4242"/>
<path d="M654.248 311.962C641.859 311.962 629.749 308.285 619.448 301.395C609.148 294.505 601.119 284.712 596.378 273.255C591.637 261.798 590.397 249.19 592.814 237.027C595.231 224.864 601.196 213.692 609.956 204.923C618.716 196.154 629.877 190.182 642.028 187.763C654.178 185.343 666.773 186.585 678.218 191.331C689.664 196.076 699.446 204.113 706.329 214.425C713.212 224.736 716.885 236.859 716.885 249.26C716.866 265.884 710.261 281.821 698.518 293.576C686.775 305.331 670.854 311.943 654.248 311.962ZM654.248 189.002C642.336 189.002 630.693 192.538 620.789 199.163C610.885 205.788 603.167 215.204 598.61 226.221C594.052 237.237 592.861 249.359 595.187 261.054C597.512 272.748 603.25 283.489 611.674 291.919C620.099 300.348 630.831 306.088 642.514 308.411C654.197 310.734 666.306 309.537 677.31 304.971C688.313 300.404 697.716 292.674 704.331 282.758C710.945 272.841 714.473 261.184 714.468 249.26C714.442 233.282 708.089 217.967 696.8 206.671C685.511 195.375 670.209 189.021 654.248 189.002Z" fill="#D1D3D4"/>
<path d="M797.944 145.757C797.787 145.763 797.63 145.736 797.485 145.678C797.339 145.62 797.207 145.531 797.098 145.418C796.984 145.305 796.895 145.171 796.833 145.024C796.772 144.877 796.74 144.718 796.74 144.559C796.74 144.399 796.772 144.241 796.833 144.093C796.895 143.946 796.984 143.812 797.098 143.7L812.618 128.26C812.844 128.038 813.148 127.914 813.464 127.914C813.781 127.914 814.084 128.038 814.31 128.26C814.424 128.372 814.514 128.506 814.575 128.654C814.636 128.801 814.668 128.959 814.668 129.119C814.668 129.279 814.636 129.437 814.575 129.584C814.514 129.732 814.424 129.866 814.31 129.978L798.79 145.515C798.673 145.61 798.537 145.681 798.392 145.723C798.246 145.765 798.094 145.776 797.944 145.757Z" fill="#D1D3D4"/>
<path d="M813.464 145.757C813.307 145.763 813.151 145.736 813.005 145.678C812.859 145.62 812.727 145.531 812.618 145.418L797.098 129.881C796.984 129.769 796.895 129.635 796.833 129.488C796.772 129.34 796.74 129.182 796.74 129.022C796.74 128.863 796.772 128.704 796.833 128.557C796.895 128.41 796.984 128.276 797.098 128.163C797.324 127.942 797.628 127.817 797.944 127.817C798.26 127.817 798.564 127.942 798.79 128.163L814.31 143.7C814.424 143.812 814.514 143.946 814.575 144.093C814.636 144.241 814.668 144.399 814.668 144.559C814.668 144.718 814.636 144.877 814.575 145.024C814.514 145.171 814.424 145.305 814.31 145.418C814.201 145.531 814.069 145.62 813.924 145.678C813.778 145.736 813.621 145.763 813.464 145.757Z" fill="#D1D3D4"/>
<path d="M698.246 233.457C697.818 234.15 697.333 234.806 696.796 235.418L645.255 286.939C644.99 287.339 644.631 287.666 644.209 287.893C643.787 288.12 643.316 288.238 642.837 288.238C642.358 288.238 641.887 288.12 641.465 287.893C641.044 287.666 640.684 287.339 640.42 286.939C630.75 276.969 621.08 266.982 611.41 256.98C611.045 256.706 610.751 256.347 610.555 255.935C610.358 255.523 610.265 255.069 610.281 254.612C610.298 254.156 610.424 253.71 610.65 253.313C610.876 252.917 611.195 252.58 611.579 252.333L618.831 245.775C619.092 245.448 619.423 245.183 619.799 245.001C620.176 244.819 620.589 244.725 621.007 244.725C621.425 244.725 621.838 244.819 622.215 245.001C622.592 245.183 622.922 245.448 623.183 245.775L640.323 263.248C642.112 265.063 643.441 265.087 645.158 263.248L685.192 223.342C685.452 222.937 685.81 222.605 686.233 222.374C686.655 222.144 687.128 222.023 687.609 222.023C688.09 222.023 688.563 222.144 688.986 222.374C689.408 222.605 689.766 222.937 690.027 223.342C692.299 225.617 694.572 227.891 696.796 230.19C697.309 230.793 697.778 231.432 698.198 232.102L698.246 233.457Z" fill="#8A33FD"/>
<path d="M249.945 255.649C246.734 255.667 243.584 254.769 240.864 253.062C238.143 251.354 235.964 248.907 234.58 246.006C233.197 243.105 232.667 239.87 233.052 236.679C233.436 233.488 234.72 230.472 236.753 227.984C238.787 225.496 241.485 223.638 244.533 222.628C247.582 221.617 250.855 221.496 253.969 222.278C257.084 223.06 259.912 224.713 262.123 227.044C264.335 229.375 265.838 232.288 266.457 235.442C267.323 239.813 266.433 244.35 263.98 248.069C261.527 251.787 257.71 254.389 253.354 255.31C252.231 255.531 251.09 255.644 249.945 255.649ZM249.945 224.407C248.979 224.396 248.014 224.494 247.069 224.697C244.239 225.241 241.635 226.617 239.59 228.648C237.544 230.68 236.149 233.275 235.583 236.103C235.017 238.931 235.305 241.864 236.411 244.528C237.517 247.192 239.39 249.465 241.792 251.059C244.193 252.652 247.015 253.494 249.896 253.476C252.777 253.458 255.588 252.581 257.97 250.958C260.351 249.334 262.196 247.037 263.269 244.36C264.341 241.683 264.592 238.747 263.991 235.926C263.31 232.696 261.55 229.796 259.001 227.702C256.452 225.608 253.267 224.445 249.97 224.407H249.945Z" fill="#3C4242"/>
<path d="M285.603 248.34C282.58 248.304 279.623 247.457 277.037 245.889C274.452 244.32 272.334 242.088 270.903 239.422C269.471 236.757 268.78 233.756 268.899 230.733C269.018 227.709 269.945 224.773 271.582 222.229C273.433 219.464 276.058 217.307 279.127 216.027C282.196 214.747 285.574 214.4 288.839 215.03C292.104 215.66 295.111 217.239 297.485 219.569C299.859 221.899 301.494 224.878 302.187 228.133C303.053 232.505 302.163 237.041 299.71 240.76C297.258 244.479 293.44 247.081 289.084 248.002C287.938 248.227 286.772 248.34 285.603 248.34ZM285.603 217.098C284.629 217.099 283.657 217.196 282.702 217.389C279.872 217.933 277.269 219.308 275.223 221.34C273.178 223.371 271.783 225.967 271.217 228.795C270.651 231.623 270.939 234.556 272.044 237.22C273.15 239.883 275.023 242.157 277.425 243.75C279.827 245.344 282.648 246.186 285.529 246.167C288.411 246.149 291.222 245.273 293.603 243.649C295.985 242.026 297.83 239.729 298.902 237.052C299.974 234.375 300.226 231.438 299.625 228.617C298.944 225.392 297.188 222.494 294.644 220.401C292.1 218.307 288.92 217.142 285.627 217.098H285.603Z" fill="#3C4242"/>
<path d="M264.982 235.466C264.761 235.471 264.543 235.412 264.353 235.297C264.217 235.217 264.098 235.111 264.003 234.984C263.909 234.858 263.84 234.714 263.802 234.56C263.764 234.407 263.756 234.248 263.781 234.091C263.805 233.935 263.86 233.786 263.943 233.651C264.282 233.107 264.727 232.637 265.25 232.266C265.773 231.896 266.364 231.633 266.989 231.494C267.615 231.354 268.261 231.34 268.892 231.453C269.523 231.566 270.125 231.803 270.663 232.151C270.907 232.318 271.082 232.569 271.153 232.856C271.225 233.144 271.189 233.447 271.052 233.71C270.915 233.972 270.686 234.175 270.41 234.28C270.133 234.385 269.828 234.385 269.551 234.28C267.134 233.046 266.118 234.692 266.022 234.885C265.913 235.064 265.76 235.211 265.578 235.313C265.396 235.414 265.191 235.467 264.982 235.466Z" fill="#3C4242"/>
<path d="M234.062 238.854L205.028 242.387L234.062 238.854Z" fill="white"/>
<path d="M205.029 243.597C204.708 243.616 204.393 243.507 204.153 243.294C203.912 243.081 203.767 242.781 203.747 242.46C203.728 242.139 203.837 241.823 204.05 241.583C204.263 241.342 204.563 241.196 204.884 241.177L233.894 237.62C234.051 237.6 234.211 237.611 234.364 237.654C234.517 237.697 234.66 237.771 234.784 237.87C234.908 237.969 235.011 238.093 235.086 238.233C235.162 238.373 235.208 238.526 235.223 238.685C235.264 239.002 235.178 239.323 234.983 239.577C234.788 239.831 234.501 239.998 234.184 240.04L205.174 243.573L205.029 243.597Z" fill="#3C4242"/>
<path d="M207.179 252.938C207.179 252.938 197.268 219.421 210.54 196.601C221.539 177.676 250.477 164.584 271.775 163.882C266.649 159.632 260.416 156.939 253.811 156.12C247.205 155.301 240.504 156.39 234.497 159.26C212.401 168.94 200.652 179.854 196.276 199.698C190.039 228.4 207.179 252.938 207.179 252.938Z" fill="#3C4242"/>
<path d="M207.18 254.1C206.986 254.097 206.797 254.05 206.625 253.962C206.453 253.874 206.304 253.747 206.188 253.592C206.019 253.326 188.807 228.279 195.116 199.408C199.323 180.048 210.25 168.48 234.038 158.099C240.283 155.161 247.231 154.057 254.078 154.913C260.924 155.77 267.388 158.553 272.718 162.939C272.887 163.105 273.004 163.317 273.055 163.549C273.107 163.781 273.09 164.023 273.008 164.245C272.928 164.471 272.781 164.666 272.587 164.805C272.392 164.943 272.159 165.019 271.92 165.02C251.42 165.77 222.627 178.233 211.579 197.23C198.718 219.325 208.243 252.261 208.34 252.6C208.42 252.874 208.401 253.167 208.286 253.428C208.171 253.69 207.968 253.902 207.711 254.027C207.54 254.085 207.36 254.11 207.18 254.1ZM249.897 157.058C244.76 157.095 239.687 158.208 235.005 160.325C212.015 170.392 201.498 181.5 197.461 199.965C193.424 218.429 199.613 235.902 204.158 245.122C202.03 233.627 200 212.331 209.5 195.996C220.379 177.289 247.794 164.681 268.536 162.866C263.039 159.121 256.546 157.114 249.897 157.106V157.058Z" fill="#3C4242"/>
<path d="M222.99 247.034C222.99 247.034 208.921 220.22 196.18 238.467C183.44 256.714 204.859 274.622 217.043 272.202" fill="white"/>
<path d="M214.649 273.654C207.663 273.654 199.347 268.814 194.681 261.554C192.226 258.041 190.951 253.838 191.043 249.552C191.134 245.266 192.586 241.121 195.189 237.717C198.549 232.877 202.441 230.457 206.527 230.82C216.197 231.425 223.739 245.775 224.078 246.38C224.222 246.67 224.247 247.004 224.148 247.312C224.048 247.62 223.832 247.876 223.546 248.026C223.263 248.171 222.935 248.199 222.632 248.104C222.329 248.009 222.075 247.798 221.926 247.518C221.926 247.372 214.674 233.748 206.382 233.24C203.142 233.022 200.024 235.006 197.171 239.096C194.867 242.118 193.58 245.793 193.493 249.593C193.406 253.393 194.524 257.123 196.687 260.247C201.377 267.507 210.395 272.202 216.801 270.943C217.118 270.886 217.445 270.955 217.711 271.136C217.978 271.317 218.163 271.595 218.227 271.911C218.284 272.226 218.214 272.55 218.033 272.812C217.852 273.075 217.574 273.256 217.26 273.315C216.403 273.514 215.529 273.628 214.649 273.654Z" fill="#3C4242"/>
<path d="M223.232 390.588C223.064 390.586 222.899 390.551 222.745 390.485C222.592 390.418 222.453 390.322 222.337 390.201C222.047 389.862 192.384 357.676 172.029 349.884C171.864 349.842 171.71 349.766 171.576 349.66C171.442 349.555 171.333 349.422 171.254 349.271C171.175 349.12 171.129 348.954 171.118 348.784C171.108 348.614 171.134 348.444 171.194 348.284C171.254 348.125 171.347 347.98 171.466 347.859C171.586 347.738 171.73 347.643 171.889 347.582C172.047 347.52 172.217 347.493 172.387 347.502C172.557 347.511 172.723 347.555 172.875 347.633C193.786 355.74 222.893 387.2 224.126 388.555C224.349 388.785 224.474 389.094 224.474 389.414C224.474 389.735 224.349 390.043 224.126 390.273C224.006 390.383 223.865 390.468 223.711 390.522C223.557 390.576 223.394 390.599 223.232 390.588Z" fill="#3C4242"/>
<path d="M582.98 213.928C582.73 213.927 582.486 213.851 582.279 213.71L555.686 195.318C555.428 195.129 555.253 194.846 555.198 194.53C555.144 194.214 555.215 193.889 555.396 193.624C555.486 193.494 555.6 193.383 555.733 193.298C555.866 193.213 556.014 193.155 556.169 193.128C556.325 193.101 556.484 193.105 556.638 193.141C556.791 193.176 556.936 193.242 557.064 193.334L583.657 211.726C583.789 211.813 583.902 211.926 583.989 212.058C584.077 212.19 584.137 212.339 584.166 212.494C584.195 212.65 584.193 212.81 584.16 212.965C584.126 213.119 584.062 213.266 583.971 213.396C583.861 213.558 583.714 213.692 583.541 213.784C583.369 213.877 583.176 213.926 582.98 213.928Z" fill="#D1D3D4"/>
<path d="M556.436 305.428C556.242 305.433 556.049 305.39 555.876 305.301C555.703 305.212 555.555 305.081 555.445 304.92C555.264 304.655 555.193 304.33 555.247 304.014C555.301 303.698 555.476 303.415 555.735 303.226L582.328 284.834C582.459 284.742 582.607 284.678 582.764 284.644C582.92 284.61 583.082 284.608 583.24 284.637C583.397 284.666 583.547 284.727 583.681 284.814C583.815 284.902 583.93 285.016 584.02 285.149C584.111 285.278 584.175 285.425 584.209 285.579C584.242 285.734 584.244 285.894 584.215 286.05C584.186 286.206 584.125 286.354 584.038 286.486C583.951 286.618 583.838 286.731 583.706 286.818L557.113 305.21C556.917 305.354 556.679 305.43 556.436 305.428Z" fill="#D1D3D4"/>
<path d="M580.2 250.47H556.484C556.164 250.47 555.856 250.343 555.629 250.116C555.403 249.889 555.275 249.581 555.275 249.26C555.275 248.939 555.403 248.631 555.629 248.404C555.856 248.177 556.164 248.05 556.484 248.05H580.2C580.52 248.05 580.828 248.177 581.055 248.404C581.281 248.631 581.409 248.939 581.409 249.26C581.409 249.581 581.281 249.889 581.055 250.116C580.828 250.343 580.52 250.47 580.2 250.47Z" fill="#D1D3D4"/>
<path d="M727.957 213.928C727.762 213.926 727.569 213.877 727.396 213.784C727.224 213.692 727.076 213.558 726.966 213.396C726.875 213.266 726.811 213.119 726.778 212.965C726.744 212.81 726.742 212.65 726.771 212.494C726.801 212.339 726.861 212.19 726.948 212.058C727.036 211.926 727.149 211.813 727.281 211.726L753.873 193.334C754.001 193.242 754.146 193.176 754.3 193.141C754.454 193.105 754.613 193.101 754.768 193.128C754.923 193.155 755.072 193.213 755.205 193.298C755.337 193.383 755.452 193.494 755.541 193.624C755.634 193.754 755.7 193.901 755.736 194.057C755.771 194.213 755.776 194.374 755.749 194.532C755.722 194.689 755.664 194.84 755.578 194.975C755.493 195.11 755.382 195.226 755.251 195.318L728.659 213.71C728.452 213.851 728.208 213.927 727.957 213.928Z" fill="#D1D3D4"/>
<path d="M754.502 305.428C754.26 305.427 754.023 305.351 753.825 305.21L727.233 286.818C727.101 286.731 726.988 286.618 726.9 286.486C726.813 286.354 726.753 286.206 726.724 286.05C726.694 285.894 726.696 285.734 726.73 285.579C726.763 285.425 726.828 285.278 726.918 285.149C727.008 285.016 727.123 284.902 727.257 284.814C727.391 284.727 727.541 284.666 727.699 284.637C727.856 284.608 728.018 284.61 728.175 284.644C728.331 284.678 728.479 284.742 728.611 284.834L755.203 303.226C755.334 303.318 755.445 303.434 755.531 303.569C755.616 303.704 755.674 303.855 755.701 304.012C755.728 304.17 755.723 304.331 755.688 304.487C755.652 304.643 755.586 304.79 755.493 304.92C755.384 305.081 755.236 305.212 755.063 305.301C754.889 305.39 754.697 305.433 754.502 305.428Z" fill="#D1D3D4"/>
<path d="M754.502 250.47H730.786C730.465 250.47 730.158 250.343 729.931 250.116C729.704 249.889 729.577 249.581 729.577 249.26C729.577 248.939 729.704 248.631 729.931 248.404C730.158 248.177 730.465 248.05 730.786 248.05H754.502C754.822 248.05 755.13 248.177 755.356 248.404C755.583 248.631 755.71 248.939 755.71 249.26C755.71 249.581 755.583 249.889 755.356 250.116C755.13 250.343 754.822 250.47 754.502 250.47Z" fill="#D1D3D4"/>
<rect x="556.5" y="463" width="201" height="54" rx="8" fill="#8A33FD"/>
<path d="M588.745 491.662C588.259 494.47 586.423 496.288 583.435 496.288C579.727 496.288 577.531 493.372 577.531 489.628C577.531 485.884 579.727 482.932 583.435 482.932C586.225 482.932 588.097 484.642 588.655 487.306L586.603 487.414C586.225 485.686 585.073 484.714 583.417 484.714C580.735 484.714 579.547 486.946 579.547 489.628C579.547 492.292 580.753 494.506 583.417 494.506C585.163 494.506 586.333 493.444 586.675 491.554L588.745 491.662ZM594.828 496.216C592.074 496.216 590.274 494.272 590.274 491.23C590.274 488.188 592.074 486.244 594.828 486.244C597.564 486.244 599.364 488.188 599.364 491.23C599.364 494.272 597.564 496.216 594.828 496.216ZM592.254 491.23C592.254 493.318 593.208 494.56 594.828 494.56C596.448 494.56 597.384 493.318 597.384 491.23C597.384 489.142 596.448 487.9 594.828 487.9C593.208 487.9 592.254 489.142 592.254 491.23ZM601.397 486.46H603.143L603.197 488.062C603.683 486.784 604.799 486.244 606.095 486.244C608.237 486.244 609.335 487.774 609.335 489.862V496H607.427V490.456C607.427 488.764 606.905 487.846 605.573 487.846C604.187 487.846 603.305 488.764 603.305 490.456V496H601.397V486.46ZM612.635 484.3H614.543V486.46H617.063V488.008H614.543V493.264C614.543 494.038 614.921 494.434 615.659 494.434H617.045V496H615.461C613.625 496 612.635 495.046 612.635 493.264V488.008H611.177V486.46H612.635V484.3ZM619.045 486.46H620.953V496H619.045V486.46ZM619.009 485.056V483.238H621.007V485.056H619.009ZM623.422 486.46H625.168L625.222 488.062C625.708 486.784 626.824 486.244 628.12 486.244C630.262 486.244 631.36 487.774 631.36 489.862V496H629.452V490.456C629.452 488.764 628.93 487.846 627.598 487.846C626.212 487.846 625.33 488.764 625.33 490.456V496H623.422V486.46ZM641.659 496H639.877L639.859 494.434C639.337 495.694 638.257 496.216 637.015 496.216C634.909 496.216 633.811 494.686 633.811 492.598V486.46H635.719V492.004C635.719 493.696 636.223 494.614 637.519 494.614C638.887 494.614 639.751 493.696 639.751 492.004V486.46H641.659V496ZM643.554 491.23C643.554 488.206 645.336 486.244 648.108 486.244C650.394 486.244 652.32 487.774 652.41 491.158L652.428 491.77H645.57C645.696 493.552 646.614 494.596 648.108 494.596C649.044 494.596 649.908 494.038 650.286 493.12L652.284 493.264C651.726 495.082 650.052 496.216 648.108 496.216C645.336 496.216 643.554 494.254 643.554 491.23ZM645.606 490.348H650.412C650.196 488.53 649.188 487.864 648.108 487.864C646.722 487.864 645.822 488.782 645.606 490.348ZM660.604 491.752C660.91 493.372 662.044 494.452 663.916 494.452C665.428 494.452 666.436 493.858 666.418 492.688C666.418 491.518 665.41 490.798 663.034 490.204C660.73 489.646 658.876 488.584 658.876 486.532C658.876 484.318 660.676 482.932 663.268 482.932C666.04 482.932 667.912 484.66 668.182 487.09L666.202 487.198C665.986 485.686 664.87 484.696 663.232 484.696C661.864 484.696 660.874 485.416 660.892 486.55C660.892 487.936 662.548 488.35 664.096 488.764C666.598 489.394 668.434 490.582 668.434 492.544C668.434 494.938 666.274 496.216 663.808 496.216C660.91 496.216 658.822 494.506 658.606 491.878L660.604 491.752ZM670.356 483.22H672.264V487.756C672.822 486.694 673.902 486.244 675.072 486.244C677.052 486.244 678.294 487.666 678.294 489.862V496H676.386V490.546C676.386 488.818 675.81 487.936 674.532 487.936C673.146 487.936 672.264 488.854 672.264 490.546V496H670.356V483.22ZM684.741 496.216C681.987 496.216 680.187 494.272 680.187 491.23C680.187 488.188 681.987 486.244 684.741 486.244C687.477 486.244 689.277 488.188 689.277 491.23C689.277 494.272 687.477 496.216 684.741 496.216ZM682.167 491.23C682.167 493.318 683.121 494.56 684.741 494.56C686.361 494.56 687.297 493.318 687.297 491.23C687.297 489.142 686.361 487.9 684.741 487.9C683.121 487.9 682.167 489.142 682.167 491.23ZM691.309 498.7V486.46H693.091L693.145 487.882C693.667 486.82 694.675 486.244 696.043 486.244C698.833 486.244 700.147 488.548 700.147 491.23C700.147 493.912 698.833 496.216 696.043 496.216C694.747 496.216 693.757 495.676 693.217 494.668V498.7H691.309ZM693.055 491.23C693.055 492.94 693.829 494.578 695.593 494.578C697.393 494.578 698.149 492.976 698.149 491.23C698.149 489.502 697.375 487.882 695.593 487.882C693.829 487.882 693.055 489.52 693.055 491.23ZM702.207 498.7V486.46H703.989L704.043 487.882C704.565 486.82 705.573 486.244 706.941 486.244C709.731 486.244 711.045 488.548 711.045 491.23C711.045 493.912 709.731 496.216 706.941 496.216C705.645 496.216 704.655 495.676 704.115 494.668V498.7H702.207ZM703.953 491.23C703.953 492.94 704.727 494.578 706.491 494.578C708.291 494.578 709.047 492.976 709.047 491.23C709.047 489.502 708.273 487.882 706.491 487.882C704.727 487.882 703.953 489.52 703.953 491.23ZM712.895 486.46H714.803V496H712.895V486.46ZM712.859 485.056V483.238H714.857V485.056H712.859ZM717.272 486.46H719.018L719.072 488.062C719.558 486.784 720.674 486.244 721.97 486.244C724.112 486.244 725.21 487.774 725.21 489.862V496H723.302V490.456C723.302 488.764 722.78 487.846 721.448 487.846C720.062 487.846 719.18 488.764 719.18 490.456V496H717.272V486.46ZM731.297 495.514C728.831 495.514 727.103 493.642 727.103 490.924C727.103 488.152 728.813 486.244 731.279 486.244C732.557 486.244 733.637 486.892 734.087 487.954V486.46H735.941V494.992C735.941 497.512 734.123 498.916 731.531 498.916C729.443 498.916 727.859 497.836 727.391 496.162L729.353 496.036C729.695 496.846 730.469 497.332 731.549 497.332C733.097 497.332 734.015 496.648 734.015 495.316V493.93C733.547 494.884 732.485 495.514 731.297 495.514ZM729.083 490.906C729.083 492.778 730.073 493.948 731.603 493.948C733.079 493.948 734.051 492.778 734.069 490.906C734.105 489.052 733.133 487.882 731.603 487.882C730.055 487.882 729.083 489.052 729.083 490.906Z" fill="white"/>
<path d="M563.691 372.7H568.071L573.111 381.79L578.151 372.7H582.501L575.061 385.6V394H571.161V385.6L563.691 372.7ZM590.812 394.36C586.042 394.36 582.922 391.09 582.922 386.05C582.922 381.01 586.042 377.74 590.812 377.74C595.552 377.74 598.672 381.01 598.672 386.05C598.672 391.09 595.552 394.36 590.812 394.36ZM586.912 386.05C586.912 389.32 588.322 391.24 590.812 391.24C593.272 391.24 594.712 389.32 594.712 386.05C594.712 382.78 593.272 380.86 590.812 380.86C588.322 380.86 586.912 382.78 586.912 386.05ZM615.343 394H611.803L611.743 391.48C610.873 393.55 609.103 394.36 607.033 394.36C603.583 394.36 601.663 391.9 601.663 388.33V378.1H605.503V387.07C605.503 389.77 606.223 391.24 608.233 391.24C610.303 391.24 611.503 389.77 611.503 387.07V378.1H615.343V394ZM619.564 378.1H623.164L623.254 381.22C623.854 379.12 625.054 378.1 627.094 378.1H628.564V381.07H627.064C624.514 381.07 623.404 382.39 623.404 384.94V394H619.564V378.1ZM648.348 394.48C642.018 394.48 638.178 390.25 638.178 383.38C638.178 376.45 642.018 372.22 648.348 372.22C654.708 372.22 658.488 376.45 658.488 383.38C658.488 390.25 654.708 394.48 648.348 394.48ZM642.258 383.38C642.258 388.18 644.508 391.09 648.348 391.09C652.188 391.09 654.468 388.18 654.468 383.38C654.468 378.52 652.188 375.61 648.348 375.61C644.508 375.61 642.258 378.52 642.258 383.38ZM661.4 378.1H665L665.09 381.22C665.69 379.12 666.89 378.1 668.93 378.1H670.4V381.07H668.9C666.35 381.07 665.24 382.39 665.24 384.94V394H661.4V378.1ZM687.198 372.7V394H683.538L683.448 391.72C682.548 393.34 680.748 394.36 678.558 394.36C674.418 394.36 671.838 391.15 671.838 386.05C671.838 380.95 674.418 377.74 678.558 377.74C680.628 377.74 682.428 378.7 683.358 380.26V372.7H687.198ZM675.798 386.05C675.798 389.23 677.358 391.27 679.698 391.27C682.068 391.27 683.598 389.23 683.598 386.05C683.598 382.81 682.068 380.74 679.698 380.74C677.328 380.74 675.798 382.81 675.798 386.05ZM690.442 386.05C690.442 381.01 693.562 377.74 698.332 377.74C702.442 377.74 705.742 380.56 705.802 386.17V387.1H694.492C694.672 389.74 696.052 391.33 698.332 391.33C699.772 391.33 701.092 390.49 701.662 389.11L705.592 389.41C704.632 392.44 701.752 394.36 698.332 394.36C693.562 394.36 690.442 391.09 690.442 386.05ZM694.522 384.55H701.842C701.542 381.82 700.042 380.77 698.332 380.77C696.202 380.77 694.822 382.18 694.522 384.55ZM708.919 378.1H712.519L712.609 381.22C713.209 379.12 714.409 378.1 716.449 378.1H717.919V381.07H716.419C713.869 381.07 712.759 382.39 712.759 384.94V394H708.919V378.1ZM728.343 378.1H732.183V394H728.343V378.1ZM728.283 375.91V372.73H732.273V375.91H728.283ZM745.702 383.2C745.402 381.58 743.992 380.62 742.462 380.62C740.962 380.62 739.792 381.4 739.822 382.69C739.852 383.98 741.442 384.52 743.032 384.82C747.382 385.57 749.782 386.71 749.782 389.74C749.782 392.89 746.722 394.36 743.002 394.36C738.652 394.36 735.712 392.32 735.442 388.96L739.372 388.75C739.672 390.43 740.932 391.45 742.912 391.45C744.232 391.45 745.822 390.97 745.792 389.65C745.792 388.12 744.022 387.88 742.402 387.52C738.472 386.74 735.832 385.72 735.832 382.75C735.832 379.63 738.412 377.74 742.672 377.74C746.392 377.74 749.062 379.75 749.602 383.02L745.702 383.2ZM601.272 419.56C600.432 424.45 597.252 427.48 592.242 427.48C586.002 427.48 582.162 422.65 582.162 416.38C582.162 410.08 585.972 405.22 592.242 405.22C597.012 405.22 600.222 408.07 601.152 412.78L597.072 412.96C596.502 410.2 594.732 408.61 592.182 408.61C588.042 408.61 586.212 412.06 586.212 416.38C586.212 420.67 588.072 424.09 592.182 424.09C594.852 424.09 596.652 422.38 597.162 419.35L601.272 419.56ZM611.525 427.36C606.755 427.36 603.635 424.09 603.635 419.05C603.635 414.01 606.755 410.74 611.525 410.74C616.265 410.74 619.385 414.01 619.385 419.05C619.385 424.09 616.265 427.36 611.525 427.36ZM607.625 419.05C607.625 422.32 609.035 424.24 611.525 424.24C613.985 424.24 615.425 422.32 615.425 419.05C615.425 415.78 613.985 413.86 611.525 413.86C609.035 413.86 607.625 415.78 607.625 419.05ZM622.494 411.1H625.974L626.094 413.74C626.934 411.58 628.734 410.74 630.864 410.74C634.404 410.74 636.324 413.2 636.324 416.77V427H632.454V418C632.454 415.33 631.764 413.86 629.694 413.86C627.594 413.86 626.334 415.33 626.334 418V427H622.494V411.1ZM641.752 410.68C641.752 407.47 643.312 405.7 646.852 405.7H649.822V408.67H647.302C646.312 408.67 645.622 409.45 645.622 410.68V411.55H649.582V414.52H645.622V427H641.752V414.52H639.472V411.55H641.752V410.68ZM653.021 411.1H656.861V427H653.021V411.1ZM652.961 408.91V405.73H656.951V408.91H652.961ZM660.697 411.1H664.297L664.387 414.22C664.987 412.12 666.187 411.1 668.227 411.1H669.697V414.07H668.197C665.647 414.07 664.537 415.39 664.537 417.94V427H660.697V411.1ZM672.328 411.1H675.808L675.898 413.65C676.678 411.82 678.298 410.74 680.398 410.74C682.648 410.74 684.268 411.94 684.958 414.04C685.708 411.88 687.358 410.74 689.668 410.74C692.878 410.74 694.888 412.87 694.888 416.77V427H691.048V418C691.048 415.3 690.178 413.86 688.498 413.86C686.458 413.86 685.348 415.33 685.348 418V427H681.838V418C681.838 415.3 680.968 413.86 679.348 413.86C677.308 413.86 676.168 415.36 676.168 418V427H672.328V411.1ZM697.825 419.05C697.825 414.01 700.945 410.74 705.715 410.74C709.825 410.74 713.125 413.56 713.185 419.17V420.1H701.875C702.055 422.74 703.435 424.33 705.715 424.33C707.155 424.33 708.475 423.49 709.045 422.11L712.975 422.41C712.015 425.44 709.135 427.36 705.715 427.36C700.945 427.36 697.825 424.09 697.825 419.05ZM701.905 417.55H709.225C708.925 414.82 707.425 413.77 705.715 413.77C703.585 413.77 702.205 415.18 701.905 417.55ZM731.027 405.7V427H727.367L727.277 424.72C726.377 426.34 724.577 427.36 722.387 427.36C718.247 427.36 715.667 424.15 715.667 419.05C715.667 413.95 718.247 410.74 722.387 410.74C724.457 410.74 726.257 411.7 727.187 413.26V405.7H731.027ZM719.627 419.05C719.627 422.23 721.187 424.27 723.527 424.27C725.897 424.27 727.427 422.23 727.427 419.05C727.427 415.81 725.897 413.74 723.527 413.74C721.157 413.74 719.627 415.81 719.627 419.05Z" fill="#3C4242"/>
</svg>
